# xmcd
#
# Track frame offsets:
#	150
#	10975
#	24387
#	39187
#	50025
#	59575
#	71100
#	79850
#	88987
#	101025
#	110012
#	120362
#	132650
#	143437
#
# Disc length: 2038 seconds
#
# Revision: 0
# Processed by: cddbd v1.5.1PL2 Copyright (c) Steve Scherf et al.
# Submitted via: EasyCDDAExtractor 8.0.1.1
#
DISCID=c507f40e
DTITLE=Nicolle Croisille - Jazz'N'Croisille
DYEAR=1994
DGENRE=Acid Jazz
TTITLE0=Love and understanding
TTITLE1=Le coeur Brisé
TTITLE2=J'ai peur
TTITLE3=Pourquoi donc vouloir ?
TTITLE4=Mon Paris par coeur
TTITLE5=Toi
TTITLE6=Tu t'fais du cinéma
TTITLE7=Ca tourne rond
TTITLE8=Un peu plus de chanson
TTITLE9=J'oublie tout
TTITLE10=Dieu merci, il m'aime aussi
TTITLE11=Nous les amoureux
TTITLE12=Pour être un jour aimée de toi
TTITLE13=C'est peu être l'amour
EXTD=
EXTT0=
EXTT1=
EXTT2=
EXTT3=
EXTT4=
EXTT5=
EXTT6=
EXTT7=
EXTT8=
EXTT9=
EXTT10=
EXTT11=
EXTT12=
EXTT13=
PLAYORDER=
